<svg version="1.0" xmlns="http://www.w3.org/2000/svg" width="4160.000000pt" height="1920.000000pt" viewBox="0 0 4160.000000 1920.000000" preserveAspectRatio="xMidYMid meet">

<g transform="translate(0.000000,1920.000000) scale(0.100000,-0.100000)" fill="#000000" stroke="none">
<path d="M6025 17269 c-109 -15 -547 -169 -682 -239 -192 -101 -368 -228 -562
-405 -107 -98 -163 -166 -327 -390 -60 -82 -112 -154 -116 -160 -5 -5 -34 -47
-66 -92 -31 -44 -92 -125 -134 -180 -108 -137 -118 -153 -194 -288 -37 -66
-86 -151 -109 -190 -187 -312 -320 -564 -388 -734 -21 -51 -65 -155 -99 -230
-33 -75 -76 -183 -95 -241 -19 -58 -56 -166 -83 -240 -27 -74 -60 -173 -74
-220 -13 -47 -41 -141 -62 -210 -50 -169 -77 -280 -124 -510 -58 -285 -68
-351 -85 -542 -9 -113 -25 -215 -44 -293 -29 -121 -54 -276 -66 -415 -4 -41
-13 -106 -21 -145 -25 -118 -29 -262 -10 -341 15 -61 15 -89 6 -234 -6 -91
-13 -191 -16 -222 -3 -33 1 -100 10 -155 8 -54 18 -141 21 -193 8 -120 49
-414 74 -528 24 -111 199 -637 242 -728 17 -38 58 -127 90 -198 100 -222 202
-377 343 -522 225 -230 815 -489 1216 -533 52 -6 205 -9 340 -7 469 8 651 68
915 302 81 71 222 234 360 414 87 113 133 178 288 405 42 61 92 156 162 310
10 22 35 87 55 144 25 70 40 99 45 90 5 -7 23 -56 41 -109 52 -154 272 -603
363 -740 63 -96 215 -239 341 -322 244 -160 424 -252 568 -289 99 -26 286 -36
375 -20 78 14 348 118 427 166 116 70 345 354 394 489 8 22 34 91 57 151 52
138 101 284 133 401 13 50 51 154 84 230 39 91 70 185 90 271 32 137 58 198
122 293 20 30 77 129 127 220 50 91 116 207 146 258 76 123 109 190 150 297
19 50 73 169 119 265 47 96 101 225 121 285 19 61 58 156 86 213 70 140 120
263 171 417 40 124 106 281 148 355 l19 35 253 -3 c261 -3 512 13 690 45 127
23 170 26 170 15 0 -6 -4 -14 -10 -17 -5 -3 -21 -45 -36 -93 -14 -48 -48 -143
-75 -212 -61 -156 -129 -377 -168 -540 -16 -69 -42 -174 -56 -235 -15 -60 -33
-137 -41 -170 -8 -33 -21 -82 -29 -110 -52 -189 -82 -455 -95 -846 -5 -178
-15 -457 -21 -619 -8 -249 -8 -311 5 -395 8 -55 18 -165 21 -245 4 -80 18
-201 31 -270 12 -69 28 -154 34 -189 11 -63 43 -139 95 -231 14 -25 57 -104
95 -176 82 -154 138 -234 234 -329 179 -177 341 -258 546 -271 124 -9 208 12
365 90 271 135 448 290 540 474 26 53 91 233 126 352 35 119 71 429 89 765 10
191 39 433 61 506 5 19 25 106 44 194 47 214 56 250 100 390 90 291 178 526
242 647 44 85 123 198 190 274 28 33 61 70 72 84 12 14 19 18 16 10 -2 -8 -9
-89 -14 -180 -6 -91 -18 -212 -27 -270 -14 -88 -15 -120 -6 -200 9 -77 9 -112
-3 -185 -26 -155 -28 -191 -16 -243 31 -125 30 -244 0 -360 -9 -32 -9 -49 -1
-65 23 -44 42 -146 40 -208 -2 -35 3 -149 11 -253 12 -168 17 -202 48 -295 26
-81 37 -134 43 -224 6 -65 19 -151 31 -190 25 -86 245 -529 299 -602 61 -82
248 -273 315 -320 107 -76 431 -198 610 -229 114 -20 338 -21 438 -2 87 17
143 43 282 134 125 81 268 221 318 312 47 87 62 134 102 329 44 210 89 377
160 583 31 90 79 233 106 318 27 85 72 207 98 270 60 141 70 173 85 263 7 39
16 72 22 74 10 3 47 -85 63 -152 6 -22 15 -85 20 -140 6 -55 19 -127 30 -160
10 -33 28 -112 40 -175 30 -165 40 -194 197 -614 69 -186 141 -307 329 -557
59 -78 300 -306 375 -355 76 -49 225 -109 355 -144 88 -23 269 -39 440 -40 61
0 169 -5 241 -12 116 -10 141 -9 225 7 100 19 251 64 290 86 150 86 381 323
502 516 63 100 204 400 262 557 34 94 82 214 105 266 23 52 50 134 61 181 18
81 39 148 107 334 38 104 63 210 134 580 10 55 30 195 43 310 13 116 29 233
35 260 5 28 14 161 19 297 6 136 12 252 15 257 3 5 6 260 7 567 1 458 -2 581
-15 679 -9 66 -20 181 -25 255 -6 77 -20 178 -34 235 -14 55 -30 134 -37 175
-7 41 -32 140 -57 220 -24 80 -62 217 -84 305 -22 88 -52 194 -66 235 -33 98
-140 331 -204 445 -27 50 -83 157 -124 238 -89 176 -128 237 -267 422 -170
225 -250 293 -513 439 -170 94 -213 114 -307 136 -145 34 -248 43 -453 43
-350 0 -572 -41 -839 -153 -204 -85 -261 -119 -429 -253 -180 -144 -252 -255
-322 -493 -103 -349 -190 -816 -225 -1194 -6 -69 -18 -170 -25 -225 -34 -235
-51 -811 -49 -1650 1 -319 3 -339 44 -580 5 -27 9 -105 9 -173 1 -98 7 -149
32 -260 36 -161 33 -197 -26 -340 -100 -243 -218 -555 -311 -822 -35 -102 -71
-201 -78 -220 -40 -97 -79 -211 -125 -362 -90 -300 -191 -530 -274 -624 -46
-52 -91 -65 -143 -41 -47 23 -99 131 -194 407 -43 124 -85 245 -95 270 -41
112 -76 263 -90 393 -9 78 -25 181 -35 229 -15 67 -19 129 -19 271 0 113 -5
195 -12 213 -7 18 -14 163 -20 379 -7 275 -6 408 6 620 8 149 21 414 30 590 8
176 20 381 26 455 6 74 15 365 19 645 5 344 11 519 19 538 16 41 14 91 -9 182
-33 129 -109 222 -267 326 -80 52 -148 77 -298 108 -124 26 -193 27 -242 2
-28 -14 -69 -20 -158 -25 -190 -9 -292 -46 -382 -138 l-37 -38 -8 -138 c-4
-78 -15 -171 -27 -217 -11 -45 -25 -139 -31 -210 -7 -72 -14 -133 -16 -137 -3
-4 -9 -103 -14 -220 -5 -117 -14 -229 -20 -248 -15 -50 -15 -269 0 -316 17
-52 7 -202 -19 -292 -26 -87 -63 -142 -183 -275 -130 -144 -150 -167 -178
-207 -13 -19 -27 -37 -30 -40 -11 -9 -85 -143 -123 -223 -144 -299 -266 -699
-362 -1177 -50 -253 -62 -357 -94 -830 -22 -323 -54 -494 -116 -624 -58 -122
-107 -157 -156 -110 -42 40 -116 154 -153 237 -92 200 -198 672 -200 887 -2
231 13 702 24 760 7 36 14 121 15 190 1 70 7 138 14 155 7 17 19 82 26 145 38
325 51 390 106 527 47 119 66 199 163 683 35 173 45 217 63 276 13 46 13 54
-1 82 -22 43 -22 155 0 173 23 19 13 112 -19 181 -58 126 -190 214 -387 260
-192 44 -569 21 -935 -57 -289 -62 -426 -78 -742 -90 -164 -7 -173 -6 -173 12
0 10 14 79 31 153 17 74 35 180 40 235 5 55 16 129 26 165 14 52 18 105 17
270 0 189 -2 213 -27 315 -39 154 -72 222 -167 346 -169 218 -263 280 -548
360 -93 26 -100 25 -224 -36 -327 -161 -458 -348 -474 -675 -12 -226 56 -522
171 -749 81 -162 151 -246 330 -396 156 -131 191 -153 378 -239 56 -26 97 -51
97 -59 0 -8 -11 -43 -24 -78 -13 -35 -45 -126 -71 -202 -25 -77 -74 -196 -107
-265 -33 -70 -66 -140 -73 -157 -23 -50 -71 -176 -99 -260 -14 -44 -91 -208
-169 -365 -203 -403 -228 -450 -237 -450 -24 0 -27 247 -4 417 26 202 36 429
41 975 3 362 1 549 -6 599 -28 175 -109 259 -256 261 -119 1 -207 -45 -257
-137 -50 -90 -51 -107 -23 -277 20 -120 26 -203 31 -383 3 -126 9 -257 14
-290 40 -257 51 -1083 17 -1280 -8 -49 -18 -128 -22 -175 -12 -148 -43 -302
-84 -420 -22 -63 -52 -160 -66 -215 -14 -55 -37 -136 -50 -180 -13 -44 -38
-129 -55 -190 -59 -207 -109 -293 -256 -436 -91 -89 -149 -123 -189 -113 -12
3 -41 23 -64 45 -44 42 -50 60 -109 294 -16 66 -46 165 -66 220 -37 105 -49
170 -66 373 -6 68 -15 143 -20 165 -20 89 -69 387 -79 486 -6 56 -23 153 -37
215 -18 79 -28 160 -34 281 -9 163 -29 349 -50 464 -21 117 -7 368 35 616 9
54 18 189 21 335 l6 245 -26 68 c-45 120 -143 245 -223 285 -97 49 -350 97
-513 96 -107 0 -121 -2 -210 -36 -153 -58 -332 -138 -368 -165 -43 -33 -63
-66 -112 -188 -53 -134 -67 -199 -75 -335 -3 -63 -13 -162 -21 -220 -10 -69
-14 -174 -13 -305 1 -110 3 -312 4 -450 1 -151 6 -270 14 -300 6 -28 14 -164
17 -305 4 -209 9 -273 26 -354 21 -96 21 -101 5 -165 -9 -37 -62 -155 -120
-271 -57 -113 -132 -277 -167 -365 -106 -268 -106 -270 -340 -585 -58 -78
-140 -191 -183 -252 -142 -198 -225 -265 -428 -344 -89 -35 -101 -37 -241 -42
-131 -4 -154 -2 -220 18 -108 32 -191 89 -310 209 -212 216 -275 301 -388 525
-49 97 -102 195 -118 219 -39 56 -100 179 -124 247 -39 114 -81 324 -103 515
-9 77 -22 187 -30 245 -7 58 -16 164 -20 235 -3 72 -13 200 -21 285 -28 296
-4 894 46 1170 6 30 22 129 36 220 14 91 34 199 44 240 10 41 24 111 30 155
26 180 133 613 185 745 21 52 50 131 65 175 16 44 38 103 50 130 12 28 51 122
87 210 36 88 96 228 133 310 82 180 172 405 230 575 47 136 213 477 308 630
32 52 85 142 117 200 33 58 93 161 135 230 42 69 105 182 141 253 48 96 84
151 147 225 45 53 130 158 189 232 108 136 233 268 332 350 29 25 70 60 90 77
45 40 87 49 160 33 90 -20 180 -73 259 -153 88 -89 144 -170 221 -323 101
-201 121 -316 86 -519 -21 -122 -42 -179 -89 -244 -20 -27 -36 -58 -36 -68 0
-11 18 -41 41 -66 60 -69 163 -94 261 -65 51 15 60 34 88 183 19 99 23 154 24
315 0 189 -1 199 -32 314 -81 300 -156 464 -296 651 -88 117 -262 250 -373
285 -77 24 -402 80 -452 79 -20 -1 -63 -5 -96 -10z m13312 -2418 c145 -40 180
-53 305 -116 127 -64 221 -126 344 -226 140 -114 127 -100 396 -458 68 -89
234 -418 271 -536 14 -44 42 -125 62 -179 20 -55 52 -160 71 -235 20 -75 49
-176 64 -226 57 -176 79 -292 90 -475 7 -96 13 -177 15 -181 3 -3 12 -84 21
-180 11 -122 14 -214 10 -309 -4 -74 -11 -297 -16 -495 -5 -207 -15 -409 -23
-475 -9 -63 -18 -160 -22 -215 -9 -152 -35 -374 -46 -404 -6 -14 -37 -159 -70
-321 -44 -219 -74 -336 -114 -455 -30 -88 -61 -189 -70 -225 -29 -115 -173
-481 -255 -645 -155 -314 -280 -466 -473 -575 -50 -28 -65 -32 -110 -28 -103
9 -156 45 -352 242 -195 195 -213 215 -265 291 -18 28 -37 52 -42 53 -4 2 -8
8 -8 13 0 5 -15 33 -34 62 -92 144 -180 345 -242 554 -25 87 -64 212 -85 278
-39 122 -57 197 -104 430 -14 72 -41 204 -60 295 -19 91 -36 188 -40 215 -3
28 -8 253 -10 500 -2 248 -8 482 -13 520 -14 92 -37 705 -37 960 0 231 20 627
36 700 6 28 15 190 19 360 10 328 10 333 58 520 17 66 34 143 38 170 12 85 41
166 104 287 33 65 76 154 95 198 60 141 130 226 245 299 80 50 102 51 247 12z
m-8865 -739 c87 -42 192 -128 226 -185 11 -17 23 -52 27 -76 4 -24 16 -64 27
-89 28 -62 33 -176 18 -387 -7 -93 -12 -182 -11 -197 1 -16 2 -45 3 -65 1 -21
-4 -67 -10 -103 -6 -36 -18 -110 -27 -165 -20 -136 -27 -149 -68 -141 -18 3
-81 31 -142 60 -89 44 -123 67 -179 123 -97 96 -179 210 -243 338 -93 184
-130 313 -140 485 -10 181 22 257 163 390 l67 63 103 -6 c94 -4 110 -8 186
-45z" data-index="0" style="visibility: visible;"></path>
<path d="M19446 13314 c-14 -13 -16 -48 -16 -222 0 -214 -8 -279 -34 -294 -8
-5 -21 -14 -28 -21 -7 -7 -29 -24 -48 -37 -117 -80 -191 -165 -295 -338 -176
-294 -229 -514 -196 -807 19 -158 92 -324 165 -371 93 -61 248 -83 312 -43 19
11 37 18 42 15 14 -8 13 -87 -2 -308 -8 -117 -18 -326 -21 -464 -4 -138 -10
-266 -14 -285 -6 -30 -11 -34 -43 -37 -55 -5 -76 12 -111 86 -27 57 -31 79
-35 171 -6 145 8 206 74 337 36 72 54 121 52 138 -3 27 -3 27 -54 -21 -66 -62
-119 -145 -157 -247 -27 -73 -30 -93 -30 -201 -1 -146 23 -266 65 -330 28 -43
81 -75 170 -104 21 -7 41 -18 45 -24 4 -7 10 -64 14 -127 8 -129 13 -150 39
-150 31 0 37 22 44 148 4 68 9 129 12 135 4 10 253 97 277 97 4 0 7 -74 7
-164 0 -133 3 -166 15 -176 23 -19 65 12 65 48 0 15 3 101 6 192 l5 165 103
105 c103 105 140 145 208 230 20 25 48 58 62 75 25 29 115 158 192 275 49 74
140 255 159 316 11 34 16 88 15 178 -1 266 -59 398 -210 480 -81 44 -143 57
-309 63 l-154 6 7 181 c4 100 11 305 15 456 4 151 10 281 14 288 23 36 57 -18
82 -130 24 -108 32 -117 75 -82 32 28 32 29 27 94 -8 99 -29 141 -104 207
l-66 57 7 214 c8 224 5 242 -35 242 -34 0 -43 -39 -50 -229 -7 -209 -8 -211
-88 -211 -25 0 -82 -12 -125 -26 -44 -13 -82 -21 -86 -17 -4 4 -3 60 1 123 24
359 24 329 3 345 -25 19 -49 19 -68 -1z m434 2 c0 -3 -4 -8 -10 -11 -5 -3 -10
-1 -10 4 0 6 5 11 10 11 6 0 10 -2 10 -4z m-93 -805 c-7 -292 -27 -678 -35
-715 -5 -21 -25 -41 -72 -72 -36 -24 -96 -66 -135 -93 -44 -31 -74 -46 -79
-40 -10 9 -1 284 24 804 l11 210 33 30 c19 17 80 54 137 83 93 48 103 52 112
36 6 -11 8 -104 4 -243z m-381 -93 c-3 -35 -11 -250 -16 -478 -11 -460 -16
-498 -71 -544 -38 -32 -44 -32 -73 -1 -54 58 -91 248 -80 415 11 178 35 279
109 445 28 62 124 225 133 225 3 0 2 -28 -2 -62z m599 -759 c63 -31 90 -61
125 -133 41 -86 54 -196 40 -333 -13 -123 -44 -228 -105 -358 -38 -79 -74
-137 -221 -354 -54 -79 -59 -68 -57 119 1 91 7 194 12 230 6 36 15 238 22 450
6 212 13 391 15 399 7 21 112 8 169 -20z m-264 -270 c-19 -456 -31 -822 -31
-927 0 -65 -5 -115 -14 -135 -29 -70 -221 -222 -271 -215 -20 3 -20 9 -17 263
4 338 37 978 54 1030 8 25 37 64 78 106 72 73 189 154 202 141 5 -5 5 -119 -1
-263z" data-index="1" style="visibility: visible;"></path>
<path d="M15346 17048 c-35 -20 -65 -62 -66 -91 0 -40 39 -77 86 -83 33 -5 45
-1 77 26 53 45 47 94 -17 138 -36 25 -52 27 -80 10z" data-index="2" style="visibility: visible;"></path>
<path d="M17001 16554 c-46 -58 -9 -105 68 -87 44 11 49 29 19 74 -30 44 -59
48 -87 13z" data-index="3" style="visibility: visible;"></path>
<path d="M16142 16543 c-5 -10 -19 -49 -32 -86 -24 -74 -39 -92 -117 -143 -29
-18 -53 -38 -53 -43 0 -5 24 -40 53 -77 65 -85 95 -150 79 -166 -17 -17 -15
-36 9 -69 28 -40 47 -36 70 16 21 47 82 134 107 150 8 6 40 24 71 41 31 18 57
39 59 47 2 8 -9 23 -24 34 -70 48 -105 89 -125 148 -26 77 -56 140 -74 155
-11 9 -16 7 -23 -7z" data-index="4" style="visibility: visible;"></path>
<path d="M15476 16198 c-3 -7 -16 -56 -31 -108 -74 -266 -86 -300 -135 -389
-53 -96 -240 -280 -340 -333 -14 -7 -68 -39 -122 -71 -53 -31 -98 -57 -101
-57 -2 0 -21 -7 -42 -16 l-37 -15 33 -25 c18 -13 42 -27 53 -30 51 -15 269
-165 301 -206 6 -7 31 -38 56 -68 107 -128 180 -263 240 -440 30 -91 31 -100
25 -205 -3 -60 -9 -128 -12 -151 -5 -36 -3 -42 15 -47 34 -8 47 15 60 109 29
197 151 548 222 640 53 69 138 143 249 219 111 76 227 163 236 176 11 19 -27
47 -107 79 -166 67 -247 133 -345 281 -71 108 -100 170 -140 296 -23 73 -29
112 -34 228 -4 123 -7 140 -23 143 -9 2 -19 -2 -21 -10z" data-index="5" style="visibility: visible;"></path>
<path d="M14840 16091 c-59 -61 -44 -111 34 -111 79 1 102 56 47 111 -37 36
-45 36 -81 0z" data-index="6" style="visibility: visible;"></path>
<path d="M38325 15483 c-44 -14 -123 -34 -175 -44 -144 -28 -156 -53 -138
-277 16 -209 -17 -610 -68 -819 -22 -92 -86 -256 -139 -358 -66 -125 -245
-395 -295 -445 -3 -3 -17 -21 -32 -42 -15 -20 -33 -42 -40 -50 -7 -7 -45 -51
-85 -98 -39 -47 -102 -114 -140 -149 -37 -35 -116 -110 -174 -166 -118 -114
-170 -152 -339 -247 -63 -36 -196 -118 -295 -182 -99 -64 -187 -120 -195 -123
-37 -17 -208 -129 -278 -182 -61 -46 -352 -221 -368 -221 -8 0 -143 -92 -189
-129 -74 -60 -73 -61 -90 69 -3 25 -28 133 -55 240 -27 107 -61 251 -75 320
-51 243 -166 585 -260 772 -63 125 -117 202 -205 288 -138 138 -219 173 -464
205 -116 16 -155 17 -235 8 -186 -21 -283 -73 -334 -177 -45 -92 -55 -173 -62
-511 -7 -341 -17 -497 -41 -608 -8 -39 -26 -133 -40 -207 -53 -286 -119 -490
-239 -734 -77 -158 -165 -284 -272 -389 -88 -86 -128 -116 -191 -140 -66 -26
-93 -22 -133 21 -110 116 -210 463 -270 937 -26 210 -23 415 10 535 20 71 53
308 66 470 7 94 42 277 66 353 12 36 19 86 19 136 0 43 5 92 11 109 17 49 -12
129 -70 189 -121 127 -320 214 -575 249 -120 17 -135 17 -206 2 -183 -38 -320
-140 -396 -298 -49 -100 -176 -504 -204 -646 -10 -55 -26 -211 -34 -349 -9
-137 -20 -313 -25 -390 -6 -81 -6 -178 -1 -230 34 -356 33 -349 62 -455 32
-121 120 -338 190 -470 43 -81 77 -126 180 -238 71 -76 86 -112 73 -174 -4
-18 -53 -172 -110 -343 -58 -170 -123 -373 -145 -450 -51 -172 -106 -336 -160
-475 -78 -200 -107 -296 -174 -575 -97 -402 -135 -528 -164 -544 -11 -6 -24 3
-52 38 -153 194 -263 444 -319 721 -26 133 -49 216 -112 410 -34 103 -54 184
-60 245 -6 49 -24 178 -41 285 -20 133 -33 258 -39 395 -4 110 -13 243 -19
295 -10 78 -9 116 4 215 9 66 20 212 26 325 12 261 27 456 45 595 8 61 19 163
25 227 6 65 21 164 34 220 14 57 38 168 56 248 79 368 95 434 135 535 13 34
37 108 53 165 16 58 48 153 71 212 47 122 52 182 22 271 -40 124 -124 223
-221 261 -102 41 -313 29 -660 -39 -327 -64 -376 -82 -464 -172 -65 -65 -111
-166 -132 -283 -24 -140 -26 -143 -194 -200 -95 -33 -138 -46 -305 -94 -49
-14 -126 -37 -170 -50 -139 -43 -707 -193 -870 -231 -479 -110 -601 -135 -663
-135 -64 0 -405 -92 -565 -152 -99 -38 -162 -57 -165 -50 -8 25 -89 142 -146
212 -88 108 -197 213 -301 291 -147 109 -202 133 -595 260 l-165 54 -140 -1
c-137 0 -142 -1 -263 -43 -212 -72 -289 -116 -421 -245 -142 -137 -198 -189
-276 -253 -86 -71 -126 -116 -193 -218 -32 -49 -94 -128 -138 -174 -134 -141
-189 -228 -259 -406 -15 -38 -38 -93 -51 -121 -13 -28 -24 -54 -24 -58 0 -3
-34 -80 -76 -169 -86 -185 -94 -202 -124 -277 -13 -30 -34 -66 -48 -80 l-24
-25 7 140 c6 135 10 172 40 410 11 84 13 192 8 455 -3 193 -1 378 4 419 12 93
-4 215 -48 356 -56 182 -93 231 -271 371 -130 101 -169 117 -319 133 -57 6
-138 16 -179 21 -83 10 -131 6 -205 -17 -100 -32 -148 -78 -209 -200 -58 -117
-73 -228 -48 -353 11 -58 13 -113 8 -240 -4 -91 -6 -174 -6 -185 11 -239 10
-366 -3 -448 -13 -79 -13 -103 -2 -158 9 -45 14 -177 16 -454 2 -334 0 -399
-14 -455 -21 -80 -21 -131 -2 -240 13 -71 15 -258 17 -1195 0 -611 -2 -1122
-6 -1135 -4 -14 -11 -34 -16 -45 -5 -11 -14 -137 -20 -280 -7 -143 -15 -305
-20 -360 -4 -55 -9 -161 -9 -235 -1 -74 -6 -166 -12 -205 -15 -101 -13 -182 7
-261 12 -51 17 -122 19 -275 1 -114 6 -213 11 -220 5 -8 12 -124 15 -259 4
-135 12 -261 18 -281 6 -20 15 -138 20 -262 5 -125 12 -231 15 -236 3 -5 11
-87 16 -183 11 -177 52 -403 103 -556 25 -78 64 -114 191 -176 144 -71 207
-78 368 -46 236 48 370 122 564 310 89 86 114 144 121 275 5 103 -4 159 -70
420 -54 213 -140 659 -162 835 -24 199 -44 314 -71 423 -20 80 -26 136 -30
262 -3 88 -12 202 -21 254 -12 69 -13 112 -7 165 4 39 7 114 5 166 -6 146 -4
244 9 510 11 240 12 246 42 312 29 64 30 72 23 140 -17 150 -7 316 44 688 21
151 29 183 104 392 25 70 60 191 77 270 57 257 78 361 100 478 12 63 39 178
60 255 22 77 51 189 66 250 29 120 104 344 139 415 170 342 235 450 430 708
50 65 115 154 145 198 44 63 78 96 170 166 63 49 147 104 185 122 84 41 217
78 260 71 217 -33 276 -52 345 -108 39 -31 94 -113 120 -176 33 -81 120 -352
120 -374 0 -16 -84 -72 -190 -127 -142 -72 -305 -197 -386 -295 -58 -69 -303
-438 -336 -505 -90 -181 -130 -295 -164 -460 -48 -237 -53 -656 -8 -785 35
-101 100 -196 201 -295 l98 -95 105 -34 c94 -30 120 -35 245 -38 124 -4 152
-2 250 21 102 24 192 53 233 76 119 66 227 129 268 156 57 38 149 127 194 188
17 23 75 100 129 172 78 105 118 172 204 343 116 230 133 279 201 561 69 291
91 512 66 678 -6 37 -15 184 -21 327 -5 143 -11 280 -12 305 l-2 44 80 33
c220 88 414 144 653 188 75 14 209 41 297 60 88 19 178 37 200 40 40 6 40 6
19 -12 -12 -10 -49 -38 -84 -63 -65 -47 -66 -47 -157 -125 -193 -164 -477
-584 -551 -815 -75 -233 -129 -483 -138 -632 -7 -118 9 -332 32 -422 54 -213
162 -411 306 -560 142 -145 308 -196 713 -217 239 -13 277 -10 402 32 207 68
394 216 600 473 151 188 184 250 309 586 33 90 41 78 20 -33 -8 -45 -25 -174
-36 -287 -11 -113 -23 -216 -26 -230 -3 -14 -8 -133 -9 -265 -4 -248 0 -292
44 -529 12 -61 28 -175 36 -255 19 -184 66 -327 203 -626 125 -273 160 -336
242 -437 75 -93 242 -256 323 -316 102 -76 285 -151 455 -187 153 -32 415 -15
530 35 80 34 114 81 185 250 93 221 155 421 239 770 51 215 87 339 124 428 64
156 105 274 165 477 33 110 108 342 166 515 58 173 111 330 117 348 6 17 14
32 19 32 4 0 49 -22 100 -49 97 -51 255 -103 367 -121 158 -24 516 -1 622 41
98 38 280 168 377 268 78 80 214 264 330 446 166 260 307 619 336 860 8 63 24
107 38 102 23 -7 63 -206 87 -427 18 -167 46 -356 54 -369 12 -19 86 -376 81
-391 -11 -33 -75 -89 -193 -167 -64 -43 -146 -100 -182 -127 -124 -94 -145
-111 -150 -116 -3 -3 -21 -17 -40 -30 -19 -14 -43 -32 -54 -40 -107 -86 -648
-628 -744 -745 -45 -55 -107 -129 -137 -165 -30 -36 -71 -92 -92 -125 -75
-122 -128 -201 -163 -245 -57 -70 -105 -141 -187 -278 -42 -70 -100 -161 -128
-202 -70 -100 -127 -194 -181 -299 -24 -47 -71 -133 -104 -191 -111 -194 -276
-531 -424 -865 -48 -107 -163 -441 -221 -638 -26 -87 -55 -184 -66 -215 -32
-92 -58 -204 -100 -422 -39 -204 -39 -207 -39 -450 0 -263 15 -426 51 -560 69
-255 222 -518 350 -602 60 -38 209 -104 309 -137 125 -40 196 -51 385 -61
l190 -11 144 32 c176 38 267 69 476 164 383 173 445 214 670 440 175 175 215
217 300 320 28 33 82 96 120 140 139 160 192 228 285 365 24 36 49 71 56 77 7
7 47 68 89 135 43 68 115 179 160 248 46 69 99 155 119 192 20 37 56 98 79
136 24 38 62 114 86 168 24 55 78 171 121 259 91 186 106 222 170 410 27 77
69 199 95 270 58 161 111 319 129 388 8 29 34 122 60 207 81 278 133 508 146
640 31 343 21 1276 -16 1480 -8 41 -25 165 -39 275 -14 110 -32 232 -40 270
-7 39 -27 147 -45 240 -27 151 -52 265 -67 317 -7 24 94 124 185 183 39 25
128 77 198 116 69 39 164 96 211 126 46 29 128 77 181 105 53 28 149 86 212
128 63 42 212 134 330 205 118 71 261 158 317 194 57 36 150 95 208 130 139
84 210 146 499 435 248 247 323 325 389 408 21 26 44 53 50 60 38 38 140 184
166 234 54 108 202 476 221 549 35 136 69 320 75 405 3 47 13 135 21 195 14
104 13 116 -6 215 -22 116 -60 202 -102 233 -41 31 -117 31 -213 0z m-9189
-2289 c7 -63 1 -198 -17 -349 -6 -55 -12 -176 -14 -270 -2 -158 -30 -614 -38
-622 -7 -6 -25 42 -51 137 -64 228 -87 286 -221 564 -62 127 -90 148 -355 255
-41 17 -91 41 -110 53 l-35 21 75 23 c348 103 439 131 535 165 61 20 130 47
155 58 25 11 50 20 57 20 7 1 14 -22 19 -55z m-578 -881 c44 -63 131 -288 144
-373 15 -96 4 -310 -21 -395 -12 -38 -36 -131 -55 -205 -58 -232 -77 -292
-125 -395 -65 -137 -205 -388 -254 -454 -59 -80 -128 -142 -152 -139 -26 4
-70 95 -102 213 -37 136 -42 413 -14 710 32 327 68 461 196 720 93 189 138
252 216 304 78 52 136 57 167 14z m-3286 -565 c-4 -160 -8 -191 -52 -403 -26
-126 -59 -270 -73 -320 -13 -49 -34 -129 -45 -177 -45 -185 -187 -491 -326
-703 -109 -168 -132 -195 -162 -195 -51 0 -152 68 -179 119 -35 69 -55 187
-55 329 0 118 5 169 34 319 33 173 50 226 128 403 40 90 76 153 138 240 25 36
71 105 101 153 69 114 146 198 245 268 78 56 219 138 239 139 7 0 9 -59 7
-172z m9018 -1107 c0 -19 40 -301 54 -377 8 -45 20 -146 26 -225 7 -79 17
-155 22 -169 14 -38 22 -900 10 -1065 -12 -156 -40 -298 -107 -550 -99 -370
-158 -540 -319 -930 -41 -99 -103 -245 -139 -325 -94 -214 -371 -753 -474
-925 -50 -82 -118 -197 -152 -255 -83 -141 -269 -381 -394 -509 -203 -206
-569 -501 -717 -576 -45 -23 -165 -15 -225 16 -66 34 -143 117 -185 199 -36
72 -100 258 -119 350 -5 25 -14 63 -20 85 -6 22 -11 83 -11 135 0 52 -5 136
-10 185 -22 211 39 823 105 1050 8 28 24 84 35 125 12 41 45 152 75 245 29 94
67 220 85 280 44 155 161 426 210 490 4 6 53 102 109 215 56 113 116 234 135
270 19 36 53 107 75 159 44 101 101 201 184 322 29 42 99 149 157 239 226 350
267 409 363 530 157 196 207 251 432 474 325 322 402 385 562 462 161 77 233
100 233 75z" data-index="7" style="visibility: visible; opacity: 1;"></path>
<path d="M16605 15425 c-33 -32 -31 -46 11 -84 32 -30 38 -32 66 -22 52 18 72
65 48 112 -16 30 -93 27 -125 -6z" data-index="8" style="visibility: visible;"></path>
<path d="M13922 15288 c-7 -7 -12 -28 -12 -48 0 -49 30 -65 80 -41 63 29 46
101 -24 101 -17 0 -37 -5 -44 -12z" data-index="9" style="visibility: visible;"></path>
<path d="M14306 14638 c-46 -159 -83 -240 -133 -293 -85 -89 -84 -75 -6 -152
102 -101 118 -151 87 -262 -15 -53 23 -11 82 90 71 120 148 218 187 237 15 7
27 19 27 26 0 15 -54 59 -94 77 -49 22 -100 131 -121 252 -6 36 -22 50 -29 25z" data-index="10" style="visibility: visible;"></path>
<path d="M16175 14145 c-29 -28 -31 -51 -9 -83 32 -45 104 -17 104 41 0 30
-31 67 -55 67 -9 0 -27 -11 -40 -25z" data-index="11" style="visibility: visible;"></path>
<path d="M13990 13608 c-31 -11 -40 -25 -40 -64 0 -34 11 -47 48 -59 36 -11
62 19 62 70 0 34 -4 44 -22 52 -15 7 -32 7 -48 1z" data-index="12" style="visibility: visible;"></path>
<path d="M25340 7583 c-116 -18 -266 -35 -432 -48 -253 -19 -381 -38 -545 -80
-214 -56 -584 -197 -783 -298 -96 -49 -181 -94 -189 -100 -10 -9 -12 -29 -7
-85 13 -135 29 -147 124 -85 146 93 294 158 507 222 116 34 251 76 300 92 203
65 355 84 795 98 816 27 1114 24 1285 -14 33 -7 124 -27 203 -44 341 -73 415
-99 717 -246 94 -45 253 -123 355 -173 161 -78 405 -187 620 -277 36 -15 144
-67 240 -115 96 -48 224 -111 283 -140 60 -29 152 -77 205 -106 116 -64 304
-144 502 -214 80 -29 192 -69 250 -91 143 -53 215 -70 275 -67 48 3 51 4 72
48 12 25 27 71 34 103 16 75 2 125 -50 175 -43 43 -153 110 -193 119 -19 4
-28 12 -28 26 0 18 -5 19 -48 13 -41 -5 -57 -2 -117 28 -136 66 -416 187 -497
216 -222 77 -312 112 -411 159 -59 28 -167 76 -240 107 -73 30 -224 100 -337
154 -224 107 -363 161 -660 256 -107 34 -280 91 -385 127 -104 36 -224 72
-265 82 -41 9 -111 25 -155 35 -342 80 -451 99 -655 111 -202 12 -722 20 -770
12z" data-index="13" style="visibility: visible;"></path>
<path d="M8165 6730 c-88 -4 -324 -8 -525 -9 -201 -1 -394 -6 -430 -11 -123
-17 -206 -32 -490 -85 -157 -30 -413 -75 -570 -100 -373 -60 -514 -94 -875
-212 -491 -160 -936 -393 -1370 -717 -305 -228 -393 -305 -541 -476 -68 -79
-182 -203 -265 -290 -127 -132 -181 -238 -183 -355 -1 -63 3 -79 46 -170 25
-55 56 -131 67 -169 44 -143 86 -191 203 -228 76 -24 147 -20 228 13 83 34
124 66 259 203 134 137 311 291 406 353 200 132 710 400 1015 533 91 39 239
106 329 147 286 131 629 234 973 293 92 16 191 36 220 45 29 8 140 22 247 30
212 16 299 28 352 47 49 18 1243 19 1311 1 97 -26 277 -44 531 -53 214 -7 276
-12 339 -29 42 -12 141 -28 220 -36 79 -8 181 -22 228 -30 47 -8 162 -24 255
-35 94 -11 213 -27 265 -35 127 -18 231 -24 645 -35 301 -8 371 -13 500 -35
315 -54 483 -75 678 -85 230 -13 402 -30 597 -60 96 -16 154 -20 200 -15 106
11 212 11 455 -3 300 -17 431 -28 595 -48 133 -17 440 -24 670 -15 58 2 155 0
215 -4 64 -4 174 -2 265 4 85 6 297 18 470 26 679 31 843 45 1120 95 63 11
223 32 355 46 225 24 407 50 740 108 77 13 178 27 225 31 47 3 157 25 245 47
88 22 185 46 215 54 30 7 80 20 110 29 74 21 222 51 295 60 33 3 141 33 240
65 99 32 230 73 290 91 61 18 166 57 235 87 152 66 171 73 335 124 74 22 140
49 154 61 43 40 64 104 65 197 1 72 -3 94 -26 142 -14 31 -49 80 -77 109 -47
48 -53 51 -89 47 -25 -4 -71 -27 -128 -66 -100 -68 -307 -176 -433 -228 -47
-19 -162 -55 -255 -80 -94 -25 -214 -59 -266 -74 -97 -30 -268 -69 -490 -114
-69 -14 -168 -34 -220 -45 -115 -24 -316 -51 -384 -51 -27 0 -137 -13 -245
-29 -254 -38 -337 -47 -681 -70 -390 -27 -584 -33 -653 -22 -32 6 -210 13
-395 16 -257 4 -395 11 -582 30 -411 43 -639 63 -775 70 -283 13 -426 31 -650
80 -60 13 -155 29 -210 35 -55 6 -138 17 -185 25 -47 8 -148 21 -225 30 -221
25 -266 32 -284 49 -13 12 -62 20 -183 31 -154 13 -238 30 -448 86 -41 12
-109 29 -150 40 -41 11 -115 31 -165 44 -49 14 -124 29 -165 35 -69 10 -244
41 -515 91 -140 26 -264 55 -336 79 -30 10 -118 26 -195 34 -395 44 -608 68
-696 77 -53 5 -143 19 -200 30 -63 13 -177 24 -293 29 -104 5 -248 16 -320 24
-71 9 -173 21 -225 27 -52 6 -149 21 -215 34 -234 46 -377 53 -800 35z" data-index="14" style="visibility: visible;"></path>
<path d="M38084 6217 c-11 -12 -58 -56 -104 -97 -46 -41 -120 -109 -165 -151
-104 -99 -123 -114 -230 -185 -121 -81 -148 -96 -380 -212 -255 -128 -414
-191 -550 -220 -27 -6 -86 -19 -130 -29 -65 -15 -122 -18 -310 -18 -249 0
-313 8 -460 54 -165 52 -300 91 -313 91 -15 0 -386 89 -519 125 -222 60 -358
36 -465 -82 -83 -93 -66 -111 118 -129 139 -14 338 -57 623 -135 211 -58 331
-87 465 -110 66 -11 142 -31 170 -43 44 -20 80 -25 266 -37 351 -23 489 -16
700 36 52 13 145 33 207 44 62 12 147 33 189 47 232 78 559 258 759 419 105
84 202 172 231 211 26 34 63 160 64 217 0 36 -60 164 -94 200 -32 32 -44 33
-72 4z" data-index="15" style="visibility: visible;"></path>
</g>
</svg>